<svg width="24" height="24" viewBox="0 0 24 24" fill="none" xmlns="http://www.w3.org/2000/svg">
<path d="M21 12.1246L21 17L7 17L3 21L3 3L11.8754 3" stroke="black" stroke-width="2" stroke-linecap="butt" stroke-linejoin="round"/>
<path d="M18.5492 2.3739L19.4196 4.5804L21.6261 5.4508C21.8518 5.5397 22 5.7576 22 6C22 6.2424 21.8518 6.4603 21.6261 6.5492L19.4196 7.4196L18.5492 9.6261C18.4603 9.8518 18.2424 10 18 10C17.7576 10 17.5397 9.8518 17.4508 9.6261L16.5804 7.4196L14.3739 6.5492C14.1482 6.4603 14 6.2424 14 6C14 5.7576 14.1482 5.5397 14.3739 5.4508L16.5804 4.5804L17.4508 2.3739C17.5397 2.1482 17.7576 2 18 2C18.2424 2 18.4603 2.1482 18.5492 2.3739ZM10.4119 7.7804L11.0647 9.4353L12.7196 10.0881C12.8888 10.1548 13 10.3182 13 10.5C13 10.6818 12.8888 10.8452 12.7196 10.9119L11.0647 11.5647L10.4119 13.2196C10.3452 13.3888 10.1818 13.5 10 13.5C9.8182 13.5 9.6548 13.3888 9.5881 13.2196L8.9353 11.5647L7.2804 10.9119C7.1112 10.8452 7 10.6818 7 10.5C7 10.3182 7.1112 10.1548 7.2804 10.0881L8.9353 9.4353L9.5881 7.7804C9.6548 7.6112 9.8182 7.5 10 7.5C10.1818 7.5 10.3452 7.6112 10.4119 7.7804Z" fill="black"/>
</svg>
