<svg width="24" height="24" viewBox="0 0 24 24" fill="none" xmlns="http://www.w3.org/2000/svg">
<path d="M21.8284 12C21.9415 12.3197 22 12.6578 22 13L22 17C22 18.6569 20.6569 20 19 20L5 20C3.3431 20 2 18.6569 2 17L2 13C2 12.4464 2.1532 11.9036 2.4426 11.4317L6.122 5.4317C6.6675 4.5422 7.636 4 8.6794 4L14 4M2 13L8 13L10 16L14 16L16 13L22 13" stroke="black" stroke-width="2" stroke-linecap="round" stroke-linejoin="round"/>
<path d="M20.4119 3.2804L20.853 4.3986C20.988 4.741 21.259 5.012 21.6014 5.147L22.7196 5.5881C22.8888 5.6548 23 5.8182 23 6C23 6.1818 22.8888 6.3452 22.7196 6.4119L21.6014 6.853C21.259 6.988 20.988 7.259 20.853 7.6014L20.4119 8.7196C20.3452 8.8888 20.1818 9 20 9C19.8182 9 19.6548 8.8888 19.5881 8.7196L19.147 7.6014C19.012 7.259 18.741 6.988 18.3986 6.853L17.2804 6.4119C17.1112 6.3452 17 6.1818 17 6C17 5.8182 17.1112 5.6548 17.2804 5.5881L18.3986 5.147C18.741 5.012 19.012 4.741 19.147 4.3986L19.5881 3.2804C19.6548 3.1112 19.8182 3 20 3C20.1818 3 20.3452 3.1112 20.4119 3.2804Z" fill="black"/>
<path d="M13.2746 7.6869L13.5687 8.4324C13.6587 8.6607 13.8393 8.8413 14.0676 8.9313L14.8131 9.2254C14.9259 9.2698 15 9.3788 15 9.5C15 9.6212 14.9259 9.7302 14.8131 9.7746L14.0676 10.0687C13.8393 10.1587 13.6587 10.3393 13.5687 10.5676L13.2746 11.3131C13.2302 11.4259 13.1212 11.5 13 11.5C12.8788 11.5 12.7698 11.4259 12.7254 11.3131L12.4313 10.5676C12.3413 10.3393 12.1607 10.1587 11.9324 10.0687L11.1869 9.7746C11.0741 9.7302 11 9.6212 11 9.5C11 9.3788 11.0741 9.2698 11.1869 9.2254L11.9324 8.9313C12.1607 8.8413 12.3413 8.6607 12.4313 8.4324L12.7254 7.6869C12.7698 7.5741 12.8788 7.5 13 7.5C13.1212 7.5 13.2302 7.5741 13.2746 7.6869Z" fill="black" fill-opacity="0.4"/>
</svg>
