<svg width="24" height="24" viewBox="0 0 24 24" fill="none" xmlns="http://www.w3.org/2000/svg">
<path d="M14 2L6 2C4.3431 2 3 3.3431 3 5L3 19C3 20.6569 4.3431 22 6 22L16 22C17.6569 22 19 20.6569 19 19L19 12M3 6L12 6M11 18L15 18" stroke="black" stroke-width="2" stroke-linecap="round" stroke-linejoin="round"/>
<path d="M8 10C8 10.5523 7.5523 11 7 11C6.4477 11 6 10.5523 6 10C6 9.4477 6.4477 9 7 9C7.5523 9 8 9.4477 8 10ZM8 14C8 14.5523 7.5523 15 7 15C6.4477 15 6 14.5523 6 14C6 13.4477 6.4477 13 7 13C7.5523 13 8 13.4477 8 14ZM8 18C8 18.5523 7.5523 19 7 19C6.4477 19 6 18.5523 6 18C6 17.4477 6.4477 17 7 17C7.5523 17 8 17.4477 8 18Z" fill="black"/>
<path d="M18.9805 2.3271L19.4952 3.6317C19.6527 4.0312 19.9688 4.3473 20.3683 4.5048L21.6729 5.0195C21.8703 5.0973 22 5.2879 22 5.5C22 5.7121 21.8703 5.9027 21.6729 5.9806L20.3683 6.4952C19.9688 6.6527 19.6527 6.9688 19.4952 7.3683L18.9805 8.6729C18.9027 8.8703 18.7121 9 18.5 9C18.2879 9 18.0973 8.8703 18.0195 8.6729L17.5048 7.3683C17.3473 6.9688 17.0312 6.6527 16.6317 6.4952L15.3271 5.9806C15.1297 5.9027 15 5.7121 15 5.5C15 5.2879 15.1297 5.0973 15.3271 5.0195L16.6317 4.5048C17.0312 4.3473 17.3473 4.0312 17.5048 3.6317L18.0195 2.3271C18.0973 2.1297 18.2879 2 18.5 2C18.7121 2 18.9027 2.1297 18.9805 2.3271Z" fill="black"/>
<path d="M13.4119 9.2804L13.853 10.3986C13.988 10.741 14.259 11.012 14.6014 11.147L15.7196 11.5881C15.8888 11.6548 16 11.8182 16 12C16 12.1818 15.8888 12.3452 15.7196 12.4119L14.6014 12.853C14.259 12.988 13.988 13.259 13.853 13.6014L13.4119 14.7196C13.3452 14.8888 13.1818 15 13 15C12.8182 15 12.6548 14.8888 12.5881 14.7196L12.147 13.6014C12.012 13.259 11.741 12.988 11.3986 12.853L10.2804 12.4119C10.1112 12.3452 10 12.1818 10 12C10 11.8182 10.1112 11.6548 10.2804 11.5881L11.3986 11.147C11.741 11.012 12.012 10.741 12.147 10.3986L12.5881 9.2804C12.6548 9.1112 12.8182 9 13 9C13.1818 9 13.3452 9.1112 13.4119 9.2804Z" fill="black" fill-opacity="0.4"/>
</svg>
