<svg xmlns="http://www.w3.org/2000/svg" width="24" height="24" viewBox="0 0 24 24" fill="none" stroke="currentColor" stroke-width="2" stroke-linecap="butt" stroke-linejoin="round">
  <path d="M19.703 10.3412L22 12.8284L12.8284 22L2 12L2 2L12 2L14.297 4.4872"/>
  <path d="M9.5 8C9.5 8.8284 8.8284 9.5 8 9.5C7.1716 9.5 6.5 8.8284 6.5 8C6.5 7.1716 7.1716 6.5 8 6.5C8.8284 6.5 9.5 7.1716 9.5 8ZM20.4119 1.2804L21.0647 2.9353L22.7196 3.5881C22.8888 3.6548 23 3.8182 23 4C23 4.1818 22.8888 4.3452 22.7196 4.4119L21.0647 5.0647L20.4119 6.7196C20.3452 6.8888 20.1818 7 20 7C19.8182 7 19.6548 6.8888 19.5881 6.7196L18.9353 5.0647L17.2804 4.4119C17.1112 4.3452 17 4.1818 17 4C17 3.8182 17.1112 3.6548 17.2804 3.5881L18.9353 2.9353L19.5881 1.2804C19.6548 1.1112 19.8182 1 20 1C20.1818 1 20.3452 1.1112 20.4119 1.2804ZM15.2746 8.6869L15.7098 9.7902L16.8131 10.2254C16.9259 10.2698 17 10.3788 17 10.5C17 10.6212 16.9259 10.7302 16.8131 10.7746L15.7098 11.2098L15.2746 12.3131C15.2302 12.4259 15.1212 12.5 15 12.5C14.8788 12.5 14.7698 12.4259 14.7254 12.3131L14.2902 11.2098L13.1869 10.7746C13.0741 10.7302 13 10.6212 13 10.5C13 10.3788 13.0741 10.2698 13.1869 10.2254L14.2902 9.7902L14.7254 8.6869C14.7698 8.5741 14.8788 8.5 15 8.5C15.1212 8.5 15.2302 8.5741 15.2746 8.6869Z" fill="currentColor" stroke="none"/>
</svg>
